<?xml version="1.0" standalone="no"?><!DOCTYPE svg PUBLIC "-//W3C//DTD SVG 1.1//EN" "http://www.w3.org/Graphics/SVG/1.1/DTD/svg11.dtd"><svg t="1649857753150" class="icon" viewBox="0 0 1024 1024" version="1.1" xmlns="http://www.w3.org/2000/svg" p-id="8596" xmlns:xlink="http://www.w3.org/1999/xlink" width="200" height="200"><defs><style type="text/css">@font-face { font-family: feedback-iconfont; src: url("//at.alicdn.com/t/font_1031158_u69w8yhxdu.woff2?t=1630033759944") format("woff2"), url("//at.alicdn.com/t/font_1031158_u69w8yhxdu.woff?t=1630033759944") format("woff"), url("//at.alicdn.com/t/font_1031158_u69w8yhxdu.ttf?t=1630033759944") format("truetype"); }
</style></defs><path d="M299.04 288.37c-21.04 15.5-36.55 26.68-47.32 32.2-5.48 15.18-11.85 58.55-10.35 118.22 1.35 54.09 9.43 135.33 40.3 215.07 30.14 78.03 106.19 162.02 162.27 198.04 73.2 47.07 186.62 79.95 285.65 31.22 69.19-34.16 107.97-81.47 134.09-163.41 5.88-18.49 23.39-84.24 2.69-154.97-21.26-72.31-74.92-124.97-159.59-156.68-0.1-0.01-0.28-0.14-0.37-0.16-48.96-20.04-94.59-30.53-134.76-39.69-37.38-8.54-72.74-16.58-103.66-31.01-24.8-11.51-51.5-25.59-75.05-38.11-24.21-12.81-53.93-28.55-64.42-31.52-6.91 4.34-18.42 12.73-29.48 20.8z" fill="#FE8E46" p-id="8597"></path><path d="M328.53 267.59c10.48 2.98 40.21 18.71 64.42 31.52 23.55 12.51 50.25 26.6 75.05 38.11 30.92 14.42 66.29 22.46 103.66 31.01 40.17 9.16 85.8 19.65 134.76 39.69 0.1 0.01 0.28 0.14 0.37 0.16 84.67 31.71 138.33 84.37 159.59 156.68 20.7 70.73 3.19 136.48-2.69 154.97-26.13 81.94-64.9 129.25-134.09 163.41-34.54 17-70.83 24.06-106.56 24.06-66.7 0-131.42-24.64-179.09-55.29-56.08-36.03-132.14-120.02-162.27-198.04-30.87-79.73-38.95-160.98-40.3-215.06-1.5-59.68 4.87-103.05 10.35-118.22 10.78-5.53 26.29-16.7 47.32-32.2 11.05-8.09 22.56-16.48 29.48-20.8m-7.98-56.33l-19.57 12.22c-8.47 5.29-20.12 13.79-32.45 22.78l-0.13 0.09-0.11 0.08-0.11 0.08c-12.75 9.39-32.01 23.59-40.2 27.79l-18.23 9.35-6.96 19.27c-9.58 26.54-14.85 80.39-13.42 137.19 1.46 58.25 10.24 145.88 43.8 232.53 20.38 52.78 54.86 99.59 80.18 129.56 32.93 38.97 69.32 72.16 102.48 93.46 28.8 18.52 61.43 34.02 94.32 44.8 37.93 12.43 75.91 18.74 112.88 18.74 46.29 0 89.86-9.89 129.52-29.41l0.03-0.02 0.03-0.02c41.68-20.58 74.52-45.91 100.38-77.43 25.31-30.85 45.01-69.06 60.24-116.81 3.81-11.97 10.61-36.78 13.55-68.95 3.73-40.71 0.19-79.88-10.5-116.42l-0.01-0.03-0.01-0.03c-13.11-44.59-36.49-83.62-69.48-116.01-31.59-31.01-72.23-56.02-120.79-74.34-0.16-0.07-0.32-0.13-0.48-0.19-53.12-21.68-102.55-32.95-142.29-42.02l-0.64-0.15c-34.39-7.86-66.88-15.28-92.6-27.29l-0.05-0.02-0.05-0.02c-23.1-10.72-48.5-24.09-72.54-36.86l-0.04-0.02-0.04-0.02c-41.46-21.94-60.97-31.73-74.53-35.58l-22.18-6.3z" fill="#463218" p-id="8598"></path><path d="M756.98 754.14c-99.04 48.73-212.46 15.85-285.65-31.22-56.08-36.03-132.14-120.02-162.27-198.04-30.82-79.58-38.92-160.67-40.3-214.76-6.64 4.51-12.3 8.03-17.04 10.46-5.48 15.18-11.85 58.55-10.35 118.22 1.35 54.09 9.43 135.33 40.3 215.07 30.14 78.03 106.19 162.02 162.27 198.04 73.2 47.07 186.62 79.95 285.65 31.22 69.19-34.16 107.97-81.47 134.09-163.41 3.98-12.5 13.26-46.6 12.47-89.23-25.64 58.24-62.03 95.44-119.17 123.65z" fill="#E56823" p-id="8599"></path><path d="M161.48 160.45c8.15-5.48 18.12-6.76 27.39-3.53 3.56 1.24 7.57 0.71 10.67-1.35 3.12-2.14 5.12-5.59 5.35-9.39 0.53-9.86 5.52-18.61 13.59-24.1 6.89-4.62 15.07-6.26 23.21-4.68 8.13 1.58 15.1 6.21 19.73 13.1 9.39 13.98 5.79 33.14-8.13 42.72-5.44 3.71-6.84 11.17-3.22 16.69l32.24 44.86-37 26.32-32.91-45.84a12.008 12.008 0 0 0-16.68-3.31c-14.05 9.3-33.18 5.44-42.65-8.55-9.55-14.18-5.77-33.41 8.41-42.94z" fill="#FEFE71" p-id="8600"></path><path d="M235.65 116.81c2 0 4.02 0.19 6.03 0.59 8.13 1.58 15.1 6.21 19.73 13.1 9.39 13.98 5.79 33.14-8.13 42.72-5.44 3.71-6.84 11.17-3.22 16.69l32.24 44.86-37 26.32-32.91-45.84a12.005 12.005 0 0 0-10-5.35c-2.3 0-4.62 0.66-6.68 2.04a30.523 30.523 0 0 1-16.89 5.07c-9.96 0-19.78-4.79-25.76-13.62-9.54-14.18-5.76-33.4 8.42-42.94 5.2-3.49 11.13-5.28 17.15-5.28 3.43 0 6.88 0.58 10.25 1.75 1.28 0.44 2.62 0.66 3.95 0.66 2.38 0 4.73-0.69 6.72-2.01 3.12-2.14 5.12-5.59 5.35-9.39 0.53-9.86 5.52-18.61 13.59-24.1 5.17-3.48 11.09-5.27 17.16-5.27m0-52c-16.46 0-32.41 4.87-46.15 14.09l-0.14 0.1-0.14 0.1c-9.93 6.76-18.08 15.35-24.14 25.2-11.59 1.93-22.67 6.33-32.6 13-18.4 12.38-30.86 31.15-35.13 52.87-4.27 21.75 0.19 43.86 12.57 62.25l0.05 0.07 0.05 0.07c15.45 22.81 41.18 36.44 68.8 36.44 2.64 0 5.27-0.13 7.88-0.37l16.35 22.78 30.19 42.06 42.19-30.01 37-26.32 42.58-30.29-30.49-42.43-14.39-20.02a83.417 83.417 0 0 0 7.04-21.21c4.09-21.59-0.39-43.5-12.61-61.69-12.36-18.42-31.18-30.91-52.97-35.14a83.043 83.043 0 0 0-15.94-1.55z" fill="#463218" p-id="8601"></path><path d="M674.28 419.16l-20.7 37.85c30.64 16.77 115.78 67.63 141.37 101.21l34.31-26.15c-35.76-46.92-142.88-106.29-154.98-112.91z" fill="#FFFFFF" p-id="8602"></path><path d="M633.21 608.65m-20.36 0a20.36 20.36 0 1 0 40.72 0 20.36 20.36 0 1 0-40.72 0Z" fill="#E56823" p-id="8603"></path><path d="M600.2 736.25m-20.36 0a20.36 20.36 0 1 0 40.72 0 20.36 20.36 0 1 0-40.72 0Z" fill="#E56823" p-id="8604"></path><path d="M724.329477 725.602806a24.16 24.16 0 1 0 34.166803-34.167996 24.16 24.16 0 1 0-34.166803 34.167996Z" fill="#E56823" p-id="8605"></path><path d="M437.12 587.38m-24.16 0a24.16 24.16 0 1 0 48.32 0 24.16 24.16 0 1 0-48.32 0Z" fill="#E56823" p-id="8606"></path><path d="M497.234426 695.327893a38.05 38.05 0 1 0 29.122209-70.307232 38.05 38.05 0 1 0-29.122209 70.307232Z" fill="#E56823" p-id="8607"></path><path d="M759.013187 643.782039a38.05 38.05 0 1 0 29.122209-70.307232 38.05 38.05 0 1 0-29.122209 70.307232Z" fill="#E56823" p-id="8608"></path></svg>