<?xml version="1.0" standalone="no"?><!DOCTYPE svg PUBLIC "-//W3C//DTD SVG 1.1//EN" "http://www.w3.org/Graphics/SVG/1.1/DTD/svg11.dtd"><svg t="1651026591143" class="icon" viewBox="0 0 1560 1024" version="1.1" xmlns="http://www.w3.org/2000/svg" p-id="3881" xmlns:xlink="http://www.w3.org/1999/xlink" width="304.6875" height="200"><defs><style type="text/css">@font-face { font-family: feedback-iconfont; src: url("//at.alicdn.com/t/font_1031158_u69w8yhxdu.woff2?t=1630033759944") format("woff2"), url("//at.alicdn.com/t/font_1031158_u69w8yhxdu.woff?t=1630033759944") format("woff"), url("//at.alicdn.com/t/font_1031158_u69w8yhxdu.ttf?t=1630033759944") format("truetype"); }
</style></defs><path d="M1396.539577 727.225804H1131.411943c6.763486-16.399278 10.239949-33.97615 10.229709-51.716862a135.587162 135.587162 0 0 0-11.228104-54.056689h116.786616c90.603067 0 164.03374-66.416308 164.03374-148.346139s-73.430673-148.341018-164.03374-148.341018h-160.526557a137.676112 137.676112 0 0 0 26.787706-81.238634c0-81.888871-73.430673-148.166939-164.12078-148.166939H164.03374C73.435793 95.369763 0 161.647832 0 243.577662c0 81.888871 73.435793 148.300058 164.03374 148.300059h160.608477a137.676112 137.676112 0 0 0-26.787706 81.233513 135.587162 135.587162 0 0 0 11.228104 54.05669H192.342078c-90.603067 0-164.03374 66.416308-164.03374 148.346138s73.430673 148.341018 164.03374 148.341019h264.994515a135.607642 135.607642 0 0 0-10.234829 51.803901c0 81.92983 73.435793 148.341018 164.03374 148.341018h785.398953c90.597947 0 164.03374-66.411188 164.03374-148.341018 0.00512-82.02199-73.430673-148.433178-164.02862-148.433178z" fill="#EAEAEA" p-id="3882"></path><path d="M397.816891 170.879146a39.664442 39.664442 0 1 1 39.664442-39.664442 39.577402 39.577402 0 0 1-39.490363 39.664442h-0.174079z m0-61.030095a21.370773 21.370773 0 1 0 21.370773 21.370773 21.672852 21.672852 0 0 0-21.370773-21.370773z m817.736711-30.346089a39.664442 39.664442 0 1 1 39.664442-39.664441 39.577402 39.577402 0 0 1-39.490363 39.664441h-0.174079z m0-61.035214a21.672852 21.672852 0 0 0-21.370773 21.370773 21.370773 21.370773 0 0 0 42.695467 0 21.677972 21.677972 0 0 0-21.370774-21.370773h0.04608z m-429.632412 32.337758h-18.897825V31.733601a9.149394 9.149394 0 1 0-18.298789 0v18.897826h-18.897825a9.149394 9.149394 0 0 0 0 18.293668h18.897825v18.897826a9.149394 9.149394 0 1 0 18.298789 0V68.966055h18.897825a9.354193 9.354193 0 0 0 9.144275-9.149394 8.970195 8.970195 0 0 0-8.796116-9.149394h-0.348159v0.138239zM262.956765 584.608917h-18.897825v-18.897826a9.154514 9.154514 0 0 0-18.293669 0v18.897826h-19.507102a9.149394 9.149394 0 1 0 0 18.293668h18.897825v18.897826a9.144274 9.144274 0 0 0 18.293669 0v-18.897826h18.897825a9.410513 9.410513 0 0 0 9.149395-9.016274 8.678357 8.678357 0 0 0-8.673237-9.149395l0.133119-0.127999zM1396.191419 325.118374h-18.897825v-18.769826a9.149394 9.149394 0 0 0-18.293669 0V325.118374h-18.897826a9.144274 9.144274 0 0 0 0 18.298789h18.897826v18.897825a9.144274 9.144274 0 0 0 18.293669 0v-18.728866h18.897825a9.405393 9.405393 0 0 0 9.144274-9.149394 8.970195 8.970195 0 0 0-8.616917-9.313234l-0.527357-0.00512z" fill="#B4B5B5" p-id="3883"></path><path d="M612.697097 771.180784l545.026394-63.549122c30.581607-0.09728 55.331563-24.867716 55.398123-55.444203v-189.131854c0-26.700666-15.211444-55.398123-48.634636-55.398123H504.281639l108.374498 363.738341 0.04096-0.215039z" fill="#FFFFFF" p-id="3884"></path><path d="M1197.608092 853.453653a7.388123 7.388123 0 0 1-5.027815-2.07871 7.321563 7.321563 0 0 1-2.07871-5.022695v-2.903025a55.218924 55.218924 0 0 0-52.587257-52.449018h-2.862065a7.147484 7.147484 0 1 1-0.01536-14.305208h2.534387c36.710216 1.377273 66.07327 30.950245 67.194544 67.670701v1.781751c0 3.9475-3.205104 7.147484-7.152604 7.147485v0.158719z m46.863126-17.510313a7.188444 7.188444 0 0 1-7.152605-7.147484v-3.041265a55.131884 55.131884 0 0 0-52.489977-52.361978h-2.867186a7.388123 7.388123 0 0 1-5.022695-2.129909 7.142364 7.142364 0 0 1 5.022695-12.221379h2.682867c36.853576 1.397753 66.278069 31.190884 67.240624 68.059819v1.730552c-0.04608 1.884151-0.803836 3.686382-2.12991 5.027815a7.178204 7.178204 0 0 1-5.022695 2.078709h-0.261118z m-502.638127-198.706206c-2.662387 0-5.125094-1.423353-6.456288-3.732462l-77.204094-133.733731a7.490523 7.490523 0 1 1 13.009855-7.454683l77.204094 133.728612a7.459803 7.459803 0 0 1-6.461408 11.187144h-0.092159z m123.89314-7.239644c-2.662387 0-5.125094-1.418233-6.461407-3.732461l-77.245054-133.733732a7.505882 7.505882 0 1 1 13.009855-7.495642l77.250174 133.733731a7.459803 7.459803 0 0 1-6.461408 11.182024l-0.09216 0.04608z m123.893141-7.459803a7.454683 7.454683 0 0 1-6.461408-3.732461l-77.163134-133.728611a7.500762 7.500762 0 0 1 13.009855-7.454683l77.070975 133.605732a7.490523 7.490523 0 0 1-6.456288 11.176904v0.133119z" fill="#67bc9e" p-id="3885"></path><path d="M638.727046 956.298579c-15.278004 0-30.182249-4.377578-43.099944-12.661697-37.058375-23.756681-47.93832-73.179794-24.319879-110.294489L396.260419 246.286129H274.271909a11.540422 11.540422 0 0 1-11.530183-11.525063 11.540422 11.540422 0 0 1 11.530183-11.530182h139.365703l41.226034 138.715466h661.336853c39.003965 0 67.255984 31.185764 67.255984 74.14747v189.695051c-0.394238 40.268599-33.443673 73.318033-73.671312 73.712271L574.266569 761.90339l15.170484 50.836226a80.229999 80.229999 0 0 1 49.545992-17.126314c39.275324 0 73.184914 29.270894 79.016565 68.146859h279.581322c5.094375-34.851666 32.941915-62.596807 67.839661-67.527342a80.178799 80.178799 0 0 1 11.279304-0.798716c39.495483 0 73.456273 29.537132 78.990965 68.694696a79.359603 79.359603 0 0 1-15.252404 59.197144 79.328883 79.328883 0 0 1-52.643577 31.068005 80.178799 80.178799 0 0 1-11.279304 0.798716c-39.367483 0-73.236114-29.347693-78.934645-68.326058h-279.489162a80.424558 80.424558 0 0 1-11.944901 32.603997 79.728241 79.728241 0 0 1-67.419823 36.827976z m437.855091-137.414993c-31.236964 0.07168-56.642277 25.533312-56.642277 56.770276 0.06656 31.226724 25.528192 56.637157 56.765156 56.637157 15.283124-0.03072 29.532012-5.96477 40.227639-16.711597s16.573357-25.016195 16.537518-40.176439c-0.06656-30.438248-24.248199-55.346923-54.384368-56.601317l-2.503668 0.08192z m-437.537652-0.09216a56.355558 56.355558 0 0 0-40.0894 16.593837 56.345318 56.345318 0 0 0-12.323778 61.823691 56.606437 56.606437 0 0 0 12.277698 18.401188 56.345318 56.345318 0 0 0 40.13036 16.634797c15.139764 0 29.378413-5.893091 40.089399-16.593837a56.365798 56.365798 0 0 0 16.639917-40.10476 56.360678 56.360678 0 0 0-16.593837-40.120119 56.345318 56.345318 0 0 0-40.130359-16.634797z m-71.556762-79.149684l541.483372-63.170244c28.405618-0.245759 51.204864-23.147404 51.291904-51.092225l0.215039-189.336653c0-24.580997-13.854651-51.041025-44.277539-51.041025H461.831931l105.655792 354.640147z" fill="#B4B5B5" p-id="3886"></path></svg>